<svg xmlns="http://www.w3.org/2000/svg" width="115.94083mm" height="115.94517mm" viewBox="0 0 115.94083 115.94517"><defs><clipPath id="a" clipPathUnits="userSpaceOnUse"><path d="M4170.63 486.406h76.18V410.22h-76.18z"/></clipPath></defs><g style="stroke-width:.236117"><g style="stroke-width:.236117"><g style="stroke-width:.236117"><g clip-path="url(#a)" opacity="0.199997" style="stroke-width:.055751" transform="matrix(1.49408 0 0 -1.49408 -6229.146 728.848)"><g style="stroke-width:.236117"><path d="M0 0c0-9.897-8.021-17.916-17.915-17.916h-40.359c-9.892 0-17.91 8.019-17.91 17.916v40.356c0 9.894 8.018 17.915 17.91 17.915h40.359C-8.021 58.271 0 50.25 0 40.356Z" style="fill:#000;fill-opacity:1;fill-rule:nonzero;stroke:none;stroke-width:.236117" transform="translate(4246.811 428.135)"/></g></g></g></g><g style="stroke-width:.236117"><path d="M0 0c0-9.896-8.021-17.915-17.916-17.915h-40.358c-9.892 0-17.91 8.019-17.91 17.915v40.356c0 9.894 8.018 17.915 17.91 17.915h40.358C-8.021 58.271 0 50.25 0 40.356Z" style="fill:#ff3e00;fill-opacity:1;fill-rule:nonzero;stroke:none;stroke-width:.236117" transform="matrix(1.49408 0 0 -1.49408 113.825 87.062)"/></g><g style="stroke-width:.236117"><path d="M0 0c-.784.654-1.277 1.672-1.277 2.823 0 .497.302 1.954 1.644 2.133q.137.018.262.018c.307 0 .552-.084.746-.254.387-.34.523-.953.521-1.415C1.891 1.754 1.04.704 0 0m-43.932-2.905a6.76 6.76 0 0 1-1.094-3.656c.005-3.492 2.85-6.081 6.343-5.77 3.493.31 6.33 3.404 6.326 6.896V5.141l1.732.154.01-7.014 3.399.302a3.64 3.64 0 0 1 2.389 1.196q.366.399.598.858l.89.079s.297-.983.579-1.674c.282-.692.788-1.349 1.361-1.861a5.8 5.8 0 0 1 1.973-1.154c.772-.269 1.944-.337 2.813-.26l.003.001 12.231 1.089c.874.077 2.375.3 3.867.944l.002.001q.236.101.47.216l-.001.002.003.001a5 5 0 0 1 1.762-.465 6 6 0 0 1 .467-.017c2.536 0 4.895 1.57 6.381 4.279l-1.488.816C5.836.36 3.881-.899 1.852-.752l-.063.006C2.963.337 3.588 1.715 3.593 3.3c.004 1.08-.406 2.087-1.097 2.695-.433.379-1.19.797-2.353.643-1.645-.219-2.675-1.512-3.003-2.873l-3.037-.271-.002 1.545a7.36 7.36 0 0 1 1.177 3.962c-.005 3.801-3.102 6.619-6.903 6.281-1.627-.145-3.123-.846-4.301-1.897l-37.059-3.293a3.56 3.56 0 0 1-2.37-1.194 3.56 3.56 0 0 1-.98-2.481V-4.01Z" style="fill:#fff;fill-opacity:1;fill-rule:nonzero;stroke:none;stroke-width:.236117" transform="matrix(1.49408 0 0 -1.49408 95.982 62.061)"/></g><g style="stroke-width:.236117"><path d="m0 0 2.802.264a.664.664 0 0 0 .736-.673v-6.278l1.598.141q.665.057 1.121.554t.456 1.16v8.613L0 3.15Z" style="fill:#ff3e00;fill-opacity:1;fill-rule:nonzero;stroke:none;stroke-width:.236117" transform="matrix(1.49408 0 0 -1.49408 47.637 51.713)"/></g><g style="stroke-width:.236117"><path d="M0 0v9.596l-3.176-.278v-.97l-3.06-.267V4.905l3.06.268V3.999l-3.06-.268V.587l3.06.268V-.278z" style="fill:#ff3e00;fill-opacity:1;fill-rule:nonzero;stroke:none;stroke-width:.236117" transform="matrix(1.49408 0 0 -1.49408 68.738 59.44)"/></g><g style="stroke-width:.236117"><path d="m0 0 1.225.107v-3.424l2.863.251V7.082l-2.863-.251V3.282L0 3.175v3.549l-2.864-.25V-3.675L0-3.424Z" style="fill:#ff3e00;fill-opacity:1;fill-rule:nonzero;stroke:none;stroke-width:.236117" transform="matrix(1.49408 0 0 -1.49408 38.816 57.76)"/></g><g style="stroke-width:.236117"><path d="m0 0 2.412.201v-3.88L0-3.881a.664.664 0 0 0-.736.672v2.408A.82.82 0 0 0 0 0m6.282.54 2.137.195v3.134l-10.732-.937a1.6 1.6 0 0 1-1.101-.554 1.61 1.61 0 0 1-.456-1.16v-8.571L8.419-6.279v3.133l-2.137-.195a.665.665 0 0 0-.737.672v2.408c0 .407.33.765.737.801" style="fill:#ff3e00;fill-opacity:1;fill-rule:nonzero;stroke:none;stroke-width:.236117" transform="matrix(1.49408 0 0 -1.49408 20.298 54)"/></g><g style="stroke-width:.236117"><path d="M0 0a1.206 1.206 0 0 0-1.338 1.221A1.49 1.49 0 0 0 0 2.677a1.208 1.208 0 0 0 1.339-1.221A1.49 1.49 0 0 0 0 0m0 5.873C-2.504 5.654-4.534 3.446-4.534.941c0-2.504 2.03-4.357 4.534-4.137 2.505.219 4.535 2.426 4.535 4.931S2.505 6.092 0 5.873" style="fill:#ff3e00;fill-opacity:1;fill-rule:nonzero;stroke:none;stroke-width:.236117" transform="matrix(1.49408 0 0 -1.49408 38.16 73.004)"/></g><g style="stroke-width:.236117"><path d="M0 0q.544-.077 1.126-.028.466.042.909.162v-2.19L0-2.234Zm1.126 6.582c.837.073 1.515-.546 1.515-1.383 0-.836-.678-1.574-1.515-1.647s-1.515.546-1.515 1.382c0 .837.679 1.574 1.515 1.648m9.495-10.04a5.3 5.3 0 0 0-.792 2.084l-5.035-.44v3.668c.883.993 1.427 2.286 1.427 3.659 0 2.813-2.281 4.895-5.095 4.649s-5.095-2.727-5.095-5.541c0-1.256.456-2.366 1.21-3.188v-3.908l-1.126-.099-4.657-.407q.068-.214.162-.418.357-.786.972-1.337.615-.552 1.431-.838c.544-.191 1.468-.23 2.092-.175L8.656-4.651l.103.008c.557.082 1.425.248 2.324.575a5 5 0 0 0-.462.61" style="fill:#ff3e00;fill-opacity:1;fill-rule:nonzero;stroke:none;stroke-width:.236117" transform="matrix(1.49408 0 0 -1.49408 76.955 57.133)"/></g></g></svg>